<svg width="318" height="360" xmlns="http://www.w3.org/2000/svg" class="logo-bear">
    <title>Bear</title>
    <ellipse stroke-width="10" cx="250.194" cy="45.272" rx="27.407" ry="27.037" stroke="null" class="right_ear_back"
             fill="#ffeab7"/>
    <ellipse stroke-width="10" cx="81.497" cy="55.003" rx="27.407" ry="27.037" stroke="null" class="left_ear_back"
             fill="#ffeab7"/>
    <path stroke-width="8"
          d="M194.532 47.114c0-21.886 18.075-39.63 40.37-39.63 10.707 0 20.976 4.176 28.547 11.608 7.57 7.432 11.824 17.512 11.824 28.022 0 21.887-18.075 39.63-40.37 39.63-22.296 0-40.37-17.743-40.37-39.63zm20.185 0c0 10.944 9.038 19.815 20.186 19.815s20.185-8.871 20.185-19.815c0-10.943-9.037-19.814-20.185-19.814s-20.186 8.87-20.186 19.814z"
          stroke="#000" class="right_ear_front" fill="#df8a57"/>
    <path stroke-width="8"
          d="M41.867 49.62c0-21.886 18.075-39.63 40.37-39.63 10.708 0 20.976 4.176 28.547 11.608 7.57 7.432 11.824 17.512 11.824 28.022 0 21.887-18.074 39.63-40.37 39.63s-40.37-17.743-40.37-39.63zm20.186 0c0 10.944 9.037 19.815 20.185 19.815s20.185-8.871 20.185-19.815c0-10.943-9.037-19.814-20.185-19.814S62.053 38.677 62.053 49.62z"
          stroke="#000" class="left_ear_front" fill="#d97c41"/>
    <ellipse cx="160.711" cy="116.128" rx="105.46" ry="100.575" class="head_back" fill="#d97c41"/>
    <path stroke-width="7" opacity="NaN"
          d="M224.372 38.716c104.81 82.056-23.111 181.406-48.82 160.272-25.71-21.134-55.991-242.328 48.82-160.272z"
          stroke="null" fill="#df8a57" class="head_shadow"/>
    <path class="head_front" fill="none" stroke="#000" stroke-width="8" opacity="undefined"
          d="M159.124 225.16c-58.932 0-106.667-46.906-106.667-104.814 0-57.91 47.735-104.815 106.667-104.815S265.79 62.437 265.79 120.346 218.056 225.16 159.124 225.16z"/>
    <ellipse stroke-width="10" cx="103.937" cy="106.575" rx="19.059" ry="14.116" stroke="null" class="left_cheek"
             fill="pink"/>
    <ellipse stroke-width="10" cx="213.063" cy="104.988" rx="19.059" ry="14.116" stroke="null" class="right_cheek"
             fill="pink"/>
    <path stroke-width="10"
          d="m126.812 84.474-.02 13.36c-.002 1.75-2.214 3.166-4.942 3.162s-4.936-1.427-4.934-3.177l.02-13.36c.002-1.75 2.215-3.165 4.942-3.161s4.936 1.425 4.934 3.176z"
          stroke="null" class="left_eye"/>
    <path stroke-width="10"
          d="m200.556 82.797-.02 13.36c-.002 1.75-2.214 3.166-4.942 3.162s-4.936-1.427-4.934-3.177l.02-13.36c.002-1.75 2.215-3.165 4.942-3.161s4.936 1.425 4.934 3.176z"
          stroke="null" class="right_eye"/>
    <ellipse fill="#787878" stroke-width="7" cx="156.521" cy="113.12" rx="13.538" ry="11.273" stroke="#000"
             class="nose"/>
    <path fill="none" stroke-width="7" stroke="#000" class="nose_line" d="M156.478 126.112v6.841"/>
    <path stroke-width="8" stroke="#000" class="screen_out" fill="#787878" d="M30.742 136.013h258.519v205.185H30.742z"/>
    <path stroke-width="8" stroke="#000" class="screen_in" fill="#4df3ce" d="M63.335 170.087h191.852v140H63.335z"/>
    <ellipse stroke="#000" stroke-width="8" cx="41.872" cy="191.707" rx="31.481" ry="32.593" class="left_hand"
             fill="#d97c41"/>
    <ellipse stroke="#000" stroke-width="8" ry="32.593" rx="31.481" cy="191.669" cx="277.73" class="right_hand"
             fill="#df8a57"/>
    <ellipse cx="40.672" cy="306.964" rx="30" ry="30.37" class="left_foot_back" fill="#ffeab7"/>
    <ellipse cx="281.993" cy="307.414" rx="30" ry="30.37" class="right_foot_back" fill="#ffeab7"/>
    <path stroke-width="8"
          d="M5.462 311.81c0-21.657 15.963-39.214 35.655-39.214 9.457 0 18.526 4.132 25.213 11.486 6.686 7.354 10.443 17.328 10.443 27.729 0 21.657-15.964 39.214-35.656 39.214S5.462 333.468 5.462 311.81zm17.827 0c0 10.83 7.982 19.608 17.828 19.608s17.828-8.779 17.828-19.607c0-10.829-7.982-19.607-17.828-19.607S23.29 300.982 23.29 311.81z"
          stroke="#000" class="left_foot_front" fill="#d97c41"/>
    <path stroke-width="8"
          d="M241.627 312.376c0-21.658 15.964-39.215 35.656-39.215 9.456 0 18.526 4.132 25.212 11.486 6.687 7.354 10.444 17.328 10.444 27.729 0 21.657-15.964 39.214-35.656 39.214s-35.656-17.557-35.656-39.214zm17.828 0c0 10.828 7.982 19.607 17.828 19.607s17.828-8.779 17.828-19.607c0-10.83-7.982-19.607-17.828-19.607s-17.828 8.778-17.828 19.607z"
          stroke="#000" class="right_foot_front" fill="#df8a57"/>
</svg>
